<mxfile host="65bd71144e">
    <diagram id="EyO_YFOBHhHOmcC3U6vZ" name="application relations">
        <mxGraphModel dx="1158" dy="651" grid="1" gridSize="10" guides="1" tooltips="1" connect="1" arrows="1" fold="1" page="1" pageScale="1" pageWidth="850" pageHeight="1100" math="0" shadow="0">
            <root>
                <mxCell id="0"/>
                <mxCell id="1" parent="0"/>
                <mxCell id="6" style="edgeStyle=none;rounded=1;html=1;exitX=0;exitY=0.5;exitDx=0;exitDy=0;" edge="1" parent="1" source="2" target="5">
                    <mxGeometry relative="1" as="geometry"/>
                </mxCell>
                <mxCell id="2" value="&lt;h2&gt;SERVER&lt;/h2&gt;" style="rounded=1;whiteSpace=wrap;html=1;" vertex="1" parent="1">
                    <mxGeometry x="340" y="290" width="120" height="60" as="geometry"/>
                </mxCell>
                <mxCell id="5" value="&lt;h2&gt;DB&lt;/h2&gt;" style="rounded=1;whiteSpace=wrap;html=1;" vertex="1" parent="1">
                    <mxGeometry x="160" y="290" width="120" height="60" as="geometry"/>
                </mxCell>
                <mxCell id="8" style="edgeStyle=none;rounded=1;html=1;exitX=0;exitY=0.5;exitDx=0;exitDy=0;" edge="1" parent="1" source="7" target="2">
                    <mxGeometry relative="1" as="geometry"/>
                </mxCell>
                <mxCell id="7" value="&lt;h2&gt;CLIENTS&lt;/h2&gt;" style="rounded=1;whiteSpace=wrap;html=1;" vertex="1" parent="1">
                    <mxGeometry x="520" y="290" width="120" height="60" as="geometry"/>
                </mxCell>
                <mxCell id="9" value="Mobile" style="rounded=1;whiteSpace=wrap;html=1;" vertex="1" parent="1">
                    <mxGeometry x="660" y="230" width="100" height="30" as="geometry"/>
                </mxCell>
                <mxCell id="10" value="Web" style="rounded=1;whiteSpace=wrap;html=1;" vertex="1" parent="1">
                    <mxGeometry x="660" y="280" width="100" height="30" as="geometry"/>
                </mxCell>
                <mxCell id="11" value="PC" style="rounded=1;whiteSpace=wrap;html=1;" vertex="1" parent="1">
                    <mxGeometry x="660" y="330" width="100" height="30" as="geometry"/>
                </mxCell>
            </root>
        </mxGraphModel>
    </diagram>
    <diagram id="yYVrCFqIYnV7DR-At_5z" name="ideas">
        <mxGraphModel dx="540" dy="542" grid="1" gridSize="10" guides="1" tooltips="1" connect="1" arrows="1" fold="1" page="1" pageScale="1" pageWidth="850" pageHeight="1100" math="0" shadow="0">
            <root>
                <mxCell id="0"/>
                <mxCell id="1" parent="0"/>
                <mxCell id="36Kcm1hJGeSHwqk62Wqz-2" style="edgeStyle=none;rounded=1;html=1;exitX=0.25;exitY=0;exitDx=0;exitDy=0;" edge="1" parent="1" source="36Kcm1hJGeSHwqk62Wqz-1" target="36Kcm1hJGeSHwqk62Wqz-3">
                    <mxGeometry relative="1" as="geometry">
                        <mxPoint x="370.2380952380952" y="240" as="targetPoint"/>
                    </mxGeometry>
                </mxCell>
                <mxCell id="36Kcm1hJGeSHwqk62Wqz-4" style="edgeStyle=none;rounded=1;html=1;exitX=0;exitY=0;exitDx=0;exitDy=0;" edge="1" parent="1" source="36Kcm1hJGeSHwqk62Wqz-1" target="36Kcm1hJGeSHwqk62Wqz-5">
                    <mxGeometry relative="1" as="geometry">
                        <mxPoint x="250" y="240" as="targetPoint"/>
                    </mxGeometry>
                </mxCell>
                <mxCell id="36Kcm1hJGeSHwqk62Wqz-8" style="edgeStyle=none;rounded=1;html=1;exitX=0;exitY=0.25;exitDx=0;exitDy=0;" edge="1" parent="1" source="36Kcm1hJGeSHwqk62Wqz-1" target="36Kcm1hJGeSHwqk62Wqz-9">
                    <mxGeometry relative="1" as="geometry">
                        <mxPoint x="210" y="270" as="targetPoint"/>
                    </mxGeometry>
                </mxCell>
                <mxCell id="36Kcm1hJGeSHwqk62Wqz-10" style="edgeStyle=none;rounded=1;html=1;exitX=0;exitY=0.5;exitDx=0;exitDy=0;" edge="1" parent="1" source="36Kcm1hJGeSHwqk62Wqz-1" target="36Kcm1hJGeSHwqk62Wqz-11">
                    <mxGeometry relative="1" as="geometry">
                        <mxPoint x="280" y="319.9047619047618" as="targetPoint"/>
                    </mxGeometry>
                </mxCell>
                <mxCell id="36Kcm1hJGeSHwqk62Wqz-12" style="edgeStyle=none;rounded=1;html=1;exitX=0;exitY=0.75;exitDx=0;exitDy=0;" edge="1" parent="1" source="36Kcm1hJGeSHwqk62Wqz-1" target="36Kcm1hJGeSHwqk62Wqz-13">
                    <mxGeometry relative="1" as="geometry">
                        <mxPoint x="280" y="370" as="targetPoint"/>
                    </mxGeometry>
                </mxCell>
                <mxCell id="36Kcm1hJGeSHwqk62Wqz-14" style="edgeStyle=none;rounded=1;html=1;exitX=0;exitY=1;exitDx=0;exitDy=0;" edge="1" parent="1" source="36Kcm1hJGeSHwqk62Wqz-1" target="36Kcm1hJGeSHwqk62Wqz-15">
                    <mxGeometry relative="1" as="geometry">
                        <mxPoint x="300" y="420" as="targetPoint"/>
                    </mxGeometry>
                </mxCell>
                <mxCell id="36Kcm1hJGeSHwqk62Wqz-16" style="edgeStyle=none;rounded=1;html=1;exitX=1;exitY=0.5;exitDx=0;exitDy=0;entryX=0;entryY=0.5;entryDx=0;entryDy=0;startArrow=classic;startFill=1;" edge="1" parent="1" source="36Kcm1hJGeSHwqk62Wqz-1" target="36Kcm1hJGeSHwqk62Wqz-17">
                    <mxGeometry relative="1" as="geometry">
                        <mxPoint x="600" y="319.9047619047618" as="targetPoint"/>
                    </mxGeometry>
                </mxCell>
                <mxCell id="36Kcm1hJGeSHwqk62Wqz-18" style="edgeStyle=none;rounded=1;html=1;exitX=0.25;exitY=1;exitDx=0;exitDy=0;startArrow=none;startFill=0;" edge="1" parent="1" source="36Kcm1hJGeSHwqk62Wqz-1" target="36Kcm1hJGeSHwqk62Wqz-19">
                    <mxGeometry relative="1" as="geometry">
                        <mxPoint x="370" y="430" as="targetPoint"/>
                    </mxGeometry>
                </mxCell>
                <mxCell id="36Kcm1hJGeSHwqk62Wqz-20" style="edgeStyle=none;rounded=1;html=1;exitX=0.5;exitY=1;exitDx=0;exitDy=0;startArrow=none;startFill=0;entryX=0.25;entryY=0;entryDx=0;entryDy=0;" edge="1" parent="1" source="36Kcm1hJGeSHwqk62Wqz-1" target="36Kcm1hJGeSHwqk62Wqz-22">
                    <mxGeometry relative="1" as="geometry">
                        <mxPoint x="420" y="410.0000000000001" as="targetPoint"/>
                    </mxGeometry>
                </mxCell>
                <mxCell id="36Kcm1hJGeSHwqk62Wqz-29" style="edgeStyle=none;rounded=1;html=1;exitX=0.25;exitY=1;exitDx=0;exitDy=0;startArrow=none;startFill=0;" edge="1" parent="1" source="36Kcm1hJGeSHwqk62Wqz-1" target="36Kcm1hJGeSHwqk62Wqz-26">
                    <mxGeometry relative="1" as="geometry"/>
                </mxCell>
                <mxCell id="36Kcm1hJGeSHwqk62Wqz-1" value="&lt;h2&gt;Notes&lt;/h2&gt;" style="rounded=1;whiteSpace=wrap;html=1;" vertex="1" parent="1">
                    <mxGeometry x="340" y="290" width="120" height="60" as="geometry"/>
                </mxCell>
                <mxCell id="36Kcm1hJGeSHwqk62Wqz-3" value="Github integration" style="rounded=1;whiteSpace=wrap;html=1;" vertex="1" parent="1">
                    <mxGeometry x="315" y="220" width="109.76" height="20" as="geometry"/>
                </mxCell>
                <mxCell id="36Kcm1hJGeSHwqk62Wqz-5" value="Cloud integreation" style="rounded=1;whiteSpace=wrap;html=1;" vertex="1" parent="1">
                    <mxGeometry x="180" y="220" width="110" height="20" as="geometry"/>
                </mxCell>
                <mxCell id="36Kcm1hJGeSHwqk62Wqz-9" value="Google calendar integration" style="rounded=1;whiteSpace=wrap;html=1;" vertex="1" parent="1">
                    <mxGeometry x="160" y="270" width="120" height="30" as="geometry"/>
                </mxCell>
                <mxCell id="36Kcm1hJGeSHwqk62Wqz-11" value="Upload and share files" style="rounded=1;whiteSpace=wrap;html=1;" vertex="1" parent="1">
                    <mxGeometry x="160" y="320" width="110" height="30" as="geometry"/>
                </mxCell>
                <mxCell id="36Kcm1hJGeSHwqk62Wqz-13" value="Garbage collector for old files" style="rounded=1;whiteSpace=wrap;html=1;" vertex="1" parent="1">
                    <mxGeometry x="160" y="370" width="120" height="30" as="geometry"/>
                </mxCell>
                <mxCell id="36Kcm1hJGeSHwqk62Wqz-15" value="Version controll" style="rounded=1;whiteSpace=wrap;html=1;" vertex="1" parent="1">
                    <mxGeometry x="190" y="420" width="120" height="20" as="geometry"/>
                </mxCell>
                <mxCell id="36Kcm1hJGeSHwqk62Wqz-17" value="&lt;h2&gt;CLIENTS&lt;/h2&gt;" style="rounded=1;whiteSpace=wrap;html=1;" vertex="1" parent="1">
                    <mxGeometry x="600" y="290" width="120" height="60" as="geometry"/>
                </mxCell>
                <mxCell id="36Kcm1hJGeSHwqk62Wqz-19" value="Multiple contributors" style="rounded=1;whiteSpace=wrap;html=1;" vertex="1" parent="1">
                    <mxGeometry x="195" y="460" width="120" height="20" as="geometry"/>
                </mxCell>
                <mxCell id="36Kcm1hJGeSHwqk62Wqz-23" style="edgeStyle=none;rounded=1;html=1;exitX=0.5;exitY=1;exitDx=0;exitDy=0;startArrow=none;startFill=0;" edge="1" parent="1" source="36Kcm1hJGeSHwqk62Wqz-22" target="36Kcm1hJGeSHwqk62Wqz-24">
                    <mxGeometry relative="1" as="geometry">
                        <mxPoint x="450" y="490" as="targetPoint"/>
                    </mxGeometry>
                </mxCell>
                <mxCell id="36Kcm1hJGeSHwqk62Wqz-22" value="Mind maps" style="rounded=1;whiteSpace=wrap;html=1;" vertex="1" parent="1">
                    <mxGeometry x="380" y="420" width="130" height="20" as="geometry"/>
                </mxCell>
                <mxCell id="36Kcm1hJGeSHwqk62Wqz-25" style="edgeStyle=none;rounded=1;html=1;exitX=0.25;exitY=1;exitDx=0;exitDy=0;startArrow=none;startFill=0;" edge="1" parent="1" source="36Kcm1hJGeSHwqk62Wqz-24" target="36Kcm1hJGeSHwqk62Wqz-26">
                    <mxGeometry relative="1" as="geometry">
                        <mxPoint x="420" y="540" as="targetPoint"/>
                    </mxGeometry>
                </mxCell>
                <mxCell id="36Kcm1hJGeSHwqk62Wqz-27" style="edgeStyle=none;rounded=1;html=1;exitX=0.75;exitY=1;exitDx=0;exitDy=0;startArrow=none;startFill=0;" edge="1" parent="1" source="36Kcm1hJGeSHwqk62Wqz-24" target="36Kcm1hJGeSHwqk62Wqz-28">
                    <mxGeometry relative="1" as="geometry">
                        <mxPoint x="550" y="520" as="targetPoint"/>
                    </mxGeometry>
                </mxCell>
                <mxCell id="36Kcm1hJGeSHwqk62Wqz-24" value="Diagrams" style="rounded=1;whiteSpace=wrap;html=1;" vertex="1" parent="1">
                    <mxGeometry x="410" y="480" width="130" height="20" as="geometry"/>
                </mxCell>
                <mxCell id="36Kcm1hJGeSHwqk62Wqz-26" value="Hand written" style="rounded=1;whiteSpace=wrap;html=1;" vertex="1" parent="1">
                    <mxGeometry x="270" y="500" width="120" height="20" as="geometry"/>
                </mxCell>
                <mxCell id="36Kcm1hJGeSHwqk62Wqz-28" value="like drawio" style="rounded=1;whiteSpace=wrap;html=1;" vertex="1" parent="1">
                    <mxGeometry x="500" y="520" width="120" height="20" as="geometry"/>
                </mxCell>
            </root>
        </mxGraphModel>
    </diagram>
</mxfile>